<svg xmlns="http://www.w3.org/2000/svg" viewBox="0 0 100 116">
  <g stroke="#5d4037" stroke-width="4" stroke-linecap="round" fill="none">
    <path d="M41 88l-3 18"/><path d="M59 88l3 18"/>
  </g>
  <ellipse cx="36" cy="108" rx="8" ry="4" fill="#5d4037"/>
  <ellipse cx="64" cy="108" rx="8" ry="4" fill="#5d4037"/>
  <circle cx="50" cy="56" r="36" fill="#ff9f1c"/>
  <circle cx="38" cy="44" r="8" fill="#ffc15e"/>
  <g fill="#f08a00"><circle cx="62" cy="62" r="1.8"/><circle cx="54" cy="74" r="1.8"/><circle cx="70" cy="50" r="1.8"/><circle cx="40" cy="70" r="1.8"/></g>
  <path d="M50 20v-6" stroke="#6b4a1f" stroke-width="4" stroke-linecap="round"/>
  <path d="M52 18c4-8 16-10 22-6-4 8-14 10-22 6z" fill="#4caf50"/>
  <g class="face">
    <ellipse cx="38" cy="58" rx="6.5" ry="7.5" fill="#fff"/>
    <ellipse cx="62" cy="58" rx="6.5" ry="7.5" fill="#fff"/>
    <circle cx="39" cy="59.5" r="3.6" fill="#2b1d14"/>
    <circle cx="63" cy="59.5" r="3.6" fill="#2b1d14"/>
    <circle cx="40.4" cy="58" r="1.3" fill="#fff"/>
    <circle cx="64.4" cy="58" r="1.3" fill="#fff"/>
    <ellipse cx="32" cy="68" rx="5" ry="3" fill="#ff8fa3" opacity=".8"/>
    <ellipse cx="68" cy="68" rx="5" ry="3" fill="#ff8fa3" opacity=".8"/>
    <path d="M43 69q7 7 14 0" stroke="#2b1d14" stroke-width="2.6" fill="none" stroke-linecap="round"/>
  </g>
</svg>
